<?xml version="1.0" standalone="no"?><!DOCTYPE svg PUBLIC "-//W3C//DTD SVG 1.1//EN" "http://www.w3.org/Graphics/SVG/1.1/DTD/svg11.dtd"><svg t="1513398910167" class="icon" style="" viewBox="0 0 1024 1024" version="1.1" xmlns="http://www.w3.org/2000/svg" p-id="10437" xmlns:xlink="http://www.w3.org/1999/xlink" width="200" height="200"><defs><style type="text/css"></style></defs><path d="M471.83384 58.318825H136.596552a54.09675 54.09675 0 0 0-54.119328 54.074172v398.387794H107.019447V135.693434c0-29.170702 23.029501-52.787229 51.409975-52.787229H449.978392c28.403052 0 51.409975 23.616528 51.409975 52.787229v375.064779h24.587379V112.370419a54.09675 54.09675 0 0 0-54.141906-54.051594zM910.026547 967.351942a51.432553 51.432553 0 0 0 51.251929-51.274507V583.572077a51.409975 51.409975 0 0 0-51.251929-51.274507H115.644221a51.387397 51.387397 0 0 0-51.251929 51.274507v332.527936a51.432553 51.432553 0 0 0 51.251929 51.274507h794.382326z m1.219209-243.728888v52.245359c0 2.325528-1.919125 4.244653-4.244654 4.244653s-4.244653-1.919125-4.244653-4.244653V723.623054a4.244653 4.244653 0 1 1 8.489307 0z m1.783657-34.544252a6.705649 6.705649 0 1 1-13.411298 0 6.705649 6.705649 0 0 1 13.411298 0zM85.344622 749.723156a28.380474 28.380474 0 1 1 56.783525-0.022578 28.380474 28.380474 0 0 1-56.783525 0.022578z m75.726419 196.089429V553.656304h700.345196v392.156281H161.071041z" fill="#666666" p-id="10438"></path><path d="M274.615514 111.760815h59.425144a4.83168 4.83168 0 0 1 0 9.663359h-59.425144a4.83168 4.83168 0 0 1 0-9.663359z" fill="#666666" p-id="10439"></path><path d="M243.661154 117.269833m-10.97288 0a10.97288 10.97288 0 1 0 21.94576 0 10.97288 10.97288 0 1 0-21.94576 0Z" fill="#666666" p-id="10440"></path><path d="M126.571945 153.439697v357.318516h24.564801V178.004498H457.654893v332.753715h24.587379V153.439697z" fill="#666666" p-id="10441"></path></svg>