<?xml version="1.0" standalone="no"?><!DOCTYPE svg PUBLIC "-//W3C//DTD SVG 1.1//EN" "http://www.w3.org/Graphics/SVG/1.1/DTD/svg11.dtd"><svg t="1513094189411" class="icon" style="" viewBox="0 0 1024 1024" version="1.1" xmlns="http://www.w3.org/2000/svg" p-id="1839" xmlns:xlink="http://www.w3.org/1999/xlink" width="200" height="200"><defs><style type="text/css"></style></defs><path d="M929.877 429.149h-835.754c-43.756 0-79.226 37.024-79.226 82.851s35.47 82.851 79.226 82.851h835.754c43.756 0 79.226-37.024 79.226-82.851s-35.47-82.851-79.226-82.851z" p-id="1840"></path><path d="M929.877 125.364h-835.754c-43.756 0-79.226 37.024-79.226 82.851s35.47 82.851 79.226 82.851h835.754c43.756 0 79.226-37.024 79.226-82.851s-35.47-82.851-79.226-82.851z" p-id="1841"></path><path d="M929.877 732.934h-835.754c-43.756 0-79.226 37.024-79.226 82.851s35.47 82.851 79.226 82.851h835.754c43.756 0 79.226-37.024 79.226-82.851s-35.47-82.851-79.226-82.851z" p-id="1842"></path></svg>