<?xml version="1.0" standalone="no"?><!DOCTYPE svg PUBLIC "-//W3C//DTD SVG 1.1//EN" "http://www.w3.org/Graphics/SVG/1.1/DTD/svg11.dtd"><svg t="1513399039270" class="icon" style="" viewBox="0 0 1024 1024" version="1.1" xmlns="http://www.w3.org/2000/svg" p-id="11804" xmlns:xlink="http://www.w3.org/1999/xlink" width="200" height="200"><defs><style type="text/css"></style></defs><path d="M487.441191 427.937244 137.78515 310.77126c-7.367643-2.455881-15.451584-1.22794-21.693614 3.274508-6.242031 4.502448-10.02818 11.767763-10.02818 19.544719l0 415.760168c0 9.823524 5.935045 18.623763 15.04227 22.307585l349.656041 142.645748c2.967523 1.22794 6.037374 1.739582 9.107225 1.739582 4.707105 0 9.41421-1.432597 13.405016-4.093135 6.651344-4.502448 10.64215-11.972419 10.64215-20.056361L503.916059 450.858799C503.916059 440.421305 497.264715 431.211752 487.441191 427.937244zM455.617068 856.079145 154.260018 733.182772l0 0L154.260018 367.154192l301.459378 100.998101L455.719396 856.079145z" p-id="11805"></path><path d="M939.016289 314.045768c-6.242031-4.502448-14.4283-5.832717-21.693614-3.274508L567.666633 427.937244c-9.823524 3.274508-16.474868 12.484061-16.474868 22.819227L551.191766 891.996403c0 7.981613 3.990806 15.553912 10.64215 20.056361 3.990806 2.660538 8.697911 4.093135 13.405016 4.093135 3.069851 0 6.139702-0.61397 9.107225-1.739582l349.656041-142.645748c9.107225-3.683821 15.04227-12.484061 15.04227-22.307585L949.044469 333.692815C949.044469 325.915859 945.360648 318.548216 939.016289 314.045768zM900.847807 733.182772 599.388428 856.079145 599.388428 468.152293l301.459378-100.998101L900.847807 733.182772z" p-id="11806"></path><path d="M949.044469 218.675727c-0.306985-10.335165-7.162986-19.340062-17.088838-22.307585L536.251824 75.518337c-4.707105-1.432597-9.721195-1.432597-14.4283 0.102328l-399.080644 129.036075c-9.823524 3.172179-16.577196 12.279404-16.679524 22.61457-0.102328 10.335165 6.344359 19.647047 16.167882 23.023883l399.080644 139.882882c2.558209 0.920955 5.321075 1.330269 7.981613 1.330269 2.865194 0 5.730389-0.511642 8.493255-1.534926L933.388228 242.006595C943.109423 238.425102 949.351454 229.010892 949.044469 218.675727zM528.986509 341.981413 205.62886 228.601579 529.395823 123.919656 849.990607 221.745578 528.986509 341.981413z" p-id="11807"></path></svg>