<?xml version="1.0" standalone="no"?><!DOCTYPE svg PUBLIC "-//W3C//DTD SVG 1.1//EN" "http://www.w3.org/Graphics/SVG/1.1/DTD/svg11.dtd"><svg t="1513398991792" class="icon" style="" viewBox="0 0 1251 1024" version="1.1" xmlns="http://www.w3.org/2000/svg" p-id="11125" xmlns:xlink="http://www.w3.org/1999/xlink" width="244.3359375" height="200"><defs><style type="text/css"></style></defs><path d="M663.324444 256a50.346667 50.346667 0 0 0-53.76-53.191111A59.733333 59.733333 0 0 0 544.995556 256a60.302222 60.302222 0 0 0 64.568888 53.475556A50.631111 50.631111 0 0 0 663.324444 256zM309.191111 201.671111A60.017778 60.017778 0 0 0 244.622222 256a60.586667 60.586667 0 0 0 64.853334 53.475556A50.631111 50.631111 0 0 0 362.951111 256a50.346667 50.346667 0 0 0-53.76-54.328889z" p-id="11126"></path><path d="M1251.555556 651.093333c0-170.666667-157.582222-312.888889-350.72-328.533333a19.057778 19.057778 0 0 0 0-6.542222C861.866667 135.964444 667.591111 0 448.853333 0 201.386667 0 0 170.666667 0 383.431111c0 113.777778 56.888889 215.608889 168.106667 296.391111l-38.4 113.777778a19.626667 19.626667 0 0 0 18.488889 25.6 19.911111 19.911111 0 0 0 8.817777-1.991111l143.928889-71.964445 17.635556 3.697778a610.986667 610.986667 0 0 0 129.706666 17.066667c13.937778 0 28.444444 0 41.813334-1.706667a19.057778 19.057778 0 0 0 13.653333-7.395555c52.053333 129.706667 195.128889 223.288889 363.52 223.288889a529.351111 529.351111 0 0 0 126.008889-20.195556l110.933333 60.586667a19.626667 19.626667 0 0 0 21.617778-1.991111 19.342222 19.342222 0 0 0 6.542222-20.764445l-28.444444-94.151111C1199.502222 830.008889 1251.555556 739.555556 1251.555556 651.093333z m-758.044445 75.946667a19.626667 19.626667 0 0 0-6.542222 0c-12.8 0-25.6 1.706667-38.4 1.706667a578.275556 578.275556 0 0 1-121.742222-17.635556l-24.462223-4.835555a19.057778 19.057778 0 0 0-12.515555 1.706666l-108.088889 54.613334 28.444444-85.333334a19.626667 19.626667 0 0 0-7.395555-22.186666c-108.373333-75.377778-163.271111-167.253333-163.271111-272.782223 0-190.008889 183.751111-344.462222 409.6-344.462222 199.111111 0 376.32 121.173333 413.013333 282.168889-209.92 3.982222-378.595556 150.755556-378.595555 331.093333a286.435556 286.435556 0 0 0 9.955555 75.946667zM1070.08 881.777778a19.626667 19.626667 0 0 0-6.826667 21.048889l17.635556 61.724444-75.946667-41.528889a19.342222 19.342222 0 0 0-9.386666-2.56h-4.835556a519.111111 519.111111 0 0 1-123.733333 20.764445c-190.577778 0-345.6-130.56-345.6-290.986667s155.591111-290.133333 346.168889-290.133333 344.746667 133.404444 344.746666 290.986666c0.284444 79.928889-50.346667 162.133333-142.222222 230.684445z" p-id="11127"></path><path d="M749.226667 512a46.364444 46.364444 0 0 0-42.951111 42.951111A46.08 46.08 0 0 0 749.226667 597.333333a48.924444 48.924444 0 0 0 53.475555-42.666666 48.924444 48.924444 0 0 0-53.475555-42.666667zM985.031111 512a46.08 46.08 0 0 0-42.666667 42.951111 46.08 46.08 0 0 0 42.666667 42.666667 49.208889 49.208889 0 0 0 53.76-42.666667A49.493333 49.493333 0 0 0 985.031111 512z" p-id="11128"></path></svg>